<svg width="110" height="64" viewBox="0 0 110 64" fill="none" xmlns="http://www.w3.org/2000/svg">
<rect width="110" height="64" rx="12" fill="#FBF8F2"/>
<rect x="0.5" y="0.5" width="109" height="63" rx="11.5" stroke="#1B1814" stroke-opacity="0.1"/>
<path d="M15.088 39.207C14.746 39.207 14.392 39.186 14.026 39.144C13.66 39.102 13.213 39.018 12.685 38.892C12.799 38.682 12.934 38.481 13.09 38.289C13.252 38.097 13.441 37.947 13.657 37.839C13.879 37.725 14.131 37.686 14.413 37.722C14.521 37.734 14.62 37.743 14.71 37.749C14.8 37.755 14.905 37.758 15.025 37.758C15.445 37.758 15.826 37.653 16.168 37.443C16.516 37.233 16.792 36.948 16.996 36.588C17.206 36.228 17.311 35.817 17.311 35.355C17.311 34.791 17.158 34.323 16.852 33.951C16.552 33.579 16.144 33.3 15.628 33.114C15.118 32.928 14.548 32.835 13.918 32.835H11.965V39H10.039V26.085C10.537 25.989 10.999 25.914 11.425 25.86C11.851 25.8 12.265 25.755 12.667 25.725C13.069 25.695 13.486 25.68 13.918 25.68C14.95 25.68 15.811 25.836 16.501 26.148C17.197 26.454 17.716 26.874 18.058 27.408C18.406 27.936 18.58 28.539 18.58 29.217C18.58 29.649 18.46 30.111 18.22 30.603C17.98 31.095 17.638 31.482 17.194 31.764L16.672 32.016L17.176 32.142C17.62 32.34 18.004 32.598 18.328 32.916C18.658 33.234 18.91 33.597 19.084 34.005C19.264 34.407 19.354 34.842 19.354 35.31C19.354 35.772 19.255 36.234 19.057 36.696C18.865 37.158 18.586 37.578 18.22 37.956C17.854 38.334 17.407 38.637 16.879 38.865C16.351 39.093 15.754 39.207 15.088 39.207ZM11.965 31.467H13.918C14.464 31.467 14.935 31.368 15.331 31.17C15.733 30.972 16.042 30.705 16.258 30.369C16.474 30.027 16.582 29.643 16.582 29.217C16.582 28.845 16.483 28.503 16.285 28.191C16.087 27.873 15.79 27.621 15.394 27.435C15.004 27.243 14.512 27.147 13.918 27.147C13.594 27.147 13.267 27.156 12.937 27.174C12.613 27.192 12.289 27.219 11.965 27.255V31.467ZM24.0762 39.198C23.6202 39.198 23.1942 39.105 22.7982 38.919C22.4082 38.733 22.0932 38.43 21.8532 38.01C21.6132 37.59 21.4932 37.02 21.4932 36.3V29.694H23.4102V36.417C23.4102 36.801 23.4912 37.116 23.6532 37.362C23.8152 37.608 24.0762 37.731 24.4362 37.731C24.5742 37.731 24.6942 37.716 24.7962 37.686C24.9042 37.656 25.0392 37.626 25.2012 37.596C25.5372 37.53 25.8402 37.56 26.1102 37.686C26.3802 37.806 26.6292 38.001 26.8572 38.271C26.2332 38.631 25.6992 38.874 25.2552 39C24.8172 39.132 24.4242 39.198 24.0762 39.198ZM28.0362 39C27.7482 38.676 27.5592 38.355 27.4692 38.037C27.3792 37.719 27.3342 37.38 27.3342 37.02V29.694H29.2332V36.732C29.2332 37.062 29.2542 37.416 29.2962 37.794C29.3442 38.172 29.4192 38.574 29.5212 39H28.0362ZM36.3477 39.198C35.6457 39.198 35.0157 39.069 34.4577 38.811C33.9057 38.553 33.4377 38.196 33.0537 37.74C32.6697 37.284 32.3787 36.759 32.1807 36.165C31.9827 35.565 31.8837 34.926 31.8837 34.248C31.8837 33.27 32.0697 32.427 32.4417 31.719C32.8197 31.005 33.3447 30.456 34.0167 30.072C34.6947 29.688 35.4807 29.496 36.3747 29.496C37.0047 29.496 37.5657 29.631 38.0577 29.901C38.5557 30.171 38.9577 30.543 39.2637 31.017C39.5697 31.491 39.7557 32.034 39.8217 32.646C39.8937 33.252 39.8217 33.894 39.6057 34.572H34.4397C34.5657 34.212 34.7457 33.909 34.9797 33.663C35.2197 33.417 35.5377 33.294 35.9337 33.294H38.0307C38.0847 32.856 38.0367 32.46 37.8867 32.106C37.7427 31.746 37.5237 31.458 37.2297 31.242C36.9357 31.026 36.5967 30.918 36.2127 30.918C35.7567 30.918 35.3427 31.044 34.9707 31.296C34.6047 31.542 34.3137 31.914 34.0977 32.412C33.8877 32.904 33.7827 33.513 33.7827 34.239C33.7827 34.941 33.8997 35.556 34.1337 36.084C34.3737 36.612 34.7037 37.023 35.1237 37.317C35.5437 37.605 36.0207 37.749 36.5547 37.749C36.9687 37.749 37.3647 37.704 37.7427 37.614C38.1267 37.518 38.5767 37.344 39.0927 37.092L39.5877 38.415C38.9937 38.709 38.4207 38.913 37.8687 39.027C37.3227 39.141 36.8157 39.198 36.3477 39.198Z" fill="black"/>
<path d="M48.7394 28.0549C49.0006 27.3491 49.999 27.3491 50.2602 28.0549L50.9909 30.0296C51.073 30.2516 51.248 30.4265 51.4699 30.5087L53.4446 31.2394C54.1505 31.5006 54.1505 32.499 53.4446 32.7602L51.4699 33.4909C51.248 33.573 51.073 33.748 50.9909 33.9699L50.2602 35.9446C49.999 36.6505 49.0006 36.6505 48.7394 35.9446L48.0087 33.9699C47.9265 33.748 47.7516 33.573 47.5296 33.4909L45.5549 32.7602C44.8491 32.499 44.8491 31.5006 45.5549 31.2394L47.5296 30.5087C47.7516 30.4265 47.9265 30.2516 48.0087 30.0296L48.7394 28.0549Z" fill="#3B704D"/>
<path d="M62.351 39.225C61.841 39.225 61.241 39.159 60.551 39.027C59.867 38.901 59.192 38.679 58.526 38.361L59.048 37.056C59.618 37.314 60.179 37.5 60.731 37.614C61.289 37.722 61.781 37.776 62.207 37.776C62.999 37.776 63.623 37.575 64.079 37.173C64.535 36.765 64.763 36.273 64.763 35.697C64.763 35.199 64.616 34.782 64.322 34.446C64.028 34.104 63.65 33.801 63.188 33.537C62.732 33.267 62.246 33.003 61.73 32.745C61.214 32.481 60.725 32.187 60.263 31.863C59.801 31.533 59.423 31.14 59.129 30.684C58.841 30.222 58.697 29.655 58.697 28.983C58.697 28.329 58.856 27.756 59.174 27.264C59.498 26.766 59.939 26.379 60.497 26.103C61.061 25.821 61.703 25.68 62.423 25.68C62.951 25.68 63.476 25.722 63.998 25.806C64.52 25.884 65.105 26.028 65.753 26.238L65.222 27.534C64.706 27.378 64.226 27.273 63.782 27.219C63.344 27.159 62.948 27.129 62.594 27.129C61.958 27.129 61.466 27.306 61.118 27.66C60.77 28.014 60.596 28.434 60.596 28.92C60.596 29.376 60.743 29.769 61.037 30.099C61.331 30.423 61.709 30.72 62.171 30.99C62.633 31.254 63.125 31.524 63.647 31.8C64.169 32.07 64.661 32.379 65.123 32.727C65.585 33.069 65.963 33.48 66.257 33.96C66.557 34.44 66.707 35.022 66.707 35.706C66.707 36.348 66.533 36.936 66.185 37.47C65.843 37.998 65.345 38.424 64.691 38.748C64.043 39.066 63.263 39.225 62.351 39.225ZM71.4238 39.198C70.9678 39.198 70.5418 39.105 70.1458 38.919C69.7558 38.733 69.4408 38.43 69.2008 38.01C68.9608 37.59 68.8408 37.02 68.8408 36.3V29.694H70.7578V36.417C70.7578 36.801 70.8388 37.116 71.0008 37.362C71.1628 37.608 71.4238 37.731 71.7838 37.731C71.9218 37.731 72.0418 37.716 72.1438 37.686C72.2518 37.656 72.3868 37.626 72.5488 37.596C72.8848 37.53 73.1878 37.56 73.4578 37.686C73.7278 37.806 73.9768 38.001 74.2048 38.271C73.5808 38.631 73.0468 38.874 72.6028 39C72.1648 39.132 71.7718 39.198 71.4238 39.198ZM75.3838 39C75.0958 38.676 74.9068 38.355 74.8168 38.037C74.7268 37.719 74.6818 37.38 74.6818 37.02V29.694H76.5808V36.732C76.5808 37.062 76.6018 37.416 76.6438 37.794C76.6918 38.172 76.7668 38.574 76.8688 39H75.3838ZM79.6723 39V29.694H81.6163V39H79.6723ZM80.6443 28.182C80.3083 28.182 80.0263 28.068 79.7983 27.84C79.5703 27.612 79.4563 27.33 79.4563 26.994C79.4563 26.646 79.5703 26.358 79.7983 26.13C80.0263 25.896 80.3083 25.779 80.6443 25.779C80.9863 25.779 81.2683 25.896 81.4903 26.13C81.7183 26.358 81.8323 26.646 81.8323 26.994C81.8323 27.33 81.7183 27.612 81.4903 27.84C81.2683 28.068 80.9863 28.182 80.6443 28.182ZM88.0279 39.207C87.0019 39.207 86.2159 38.886 85.6699 38.244C85.1239 37.596 84.8509 36.69 84.8509 35.526V31.08H83.2399V30.108L84.8509 29.694V27.363L86.6509 26.787V35.67C86.6509 36.288 86.7829 36.795 87.0469 37.191C87.3109 37.587 87.6589 37.785 88.0909 37.785C88.3129 37.785 88.5319 37.767 88.7479 37.731C88.9699 37.689 89.2369 37.617 89.5489 37.515L89.9809 38.784C89.5249 38.934 89.1559 39.042 88.8739 39.108C88.5979 39.174 88.3159 39.207 88.0279 39.207ZM88.8829 31.08C88.5829 31.08 88.3279 31.017 88.1179 30.891C87.9139 30.759 87.7429 30.588 87.6049 30.378C87.4729 30.162 87.3679 29.934 87.2899 29.694H89.8459V31.08H88.8829ZM96.2285 39.198C95.5265 39.198 94.8965 39.069 94.3385 38.811C93.7865 38.553 93.3185 38.196 92.9345 37.74C92.5505 37.284 92.2595 36.759 92.0615 36.165C91.8635 35.565 91.7645 34.926 91.7645 34.248C91.7645 33.27 91.9505 32.427 92.3225 31.719C92.7005 31.005 93.2255 30.456 93.8975 30.072C94.5755 29.688 95.3615 29.496 96.2555 29.496C96.8855 29.496 97.4465 29.631 97.9385 29.901C98.4365 30.171 98.8385 30.543 99.1445 31.017C99.4505 31.491 99.6365 32.034 99.7025 32.646C99.7745 33.252 99.7025 33.894 99.4865 34.572H94.3205C94.4465 34.212 94.6265 33.909 94.8605 33.663C95.1005 33.417 95.4185 33.294 95.8145 33.294H97.9115C97.9655 32.856 97.9175 32.46 97.7675 32.106C97.6235 31.746 97.4045 31.458 97.1105 31.242C96.8165 31.026 96.4775 30.918 96.0935 30.918C95.6375 30.918 95.2235 31.044 94.8515 31.296C94.4855 31.542 94.1945 31.914 93.9785 32.412C93.7685 32.904 93.6635 33.513 93.6635 34.239C93.6635 34.941 93.7805 35.556 94.0145 36.084C94.2545 36.612 94.5845 37.023 95.0045 37.317C95.4245 37.605 95.9015 37.749 96.4355 37.749C96.8495 37.749 97.2455 37.704 97.6235 37.614C98.0075 37.518 98.4575 37.344 98.9735 37.092L99.4685 38.415C98.8745 38.709 98.3015 38.913 97.7495 39.027C97.2035 39.141 96.6965 39.198 96.2285 39.198Z" fill="black"/>
</svg>
