<svg width="1080" height="1080" viewBox="0 0 1080 1080" fill="none" xmlns="http://www.w3.org/2000/svg">
<rect width="1080" height="1080" fill="#272787"/>
<path d="M540 240C705.685 240 840 374.315 840 540C840 705.685 705.685 840 540 840C374.315 840 240 705.685 240 540C240 374.315 374.315 240 540 240ZM399.854 416.642C381.714 416.642 367.008 431.348 367.008 449.488L367.007 630.511C367.007 648.651 381.714 663.357 399.854 663.357C417.995 663.357 432.701 648.651 432.701 630.511V449.488C432.701 431.348 417.995 416.642 399.854 416.642ZM539.794 444.626C530.39 428.338 509.562 422.758 493.274 432.162C476.987 441.566 471.407 462.393 480.811 478.681L571.621 635.97C581.025 652.257 601.852 657.837 618.14 648.434C634.427 639.03 640.008 618.203 630.604 601.915L539.794 444.626ZM666.281 444.626C656.877 428.338 636.049 422.758 619.762 432.162C603.474 441.566 597.894 462.393 607.298 478.681L698.108 635.97C707.512 652.257 728.339 657.837 744.627 648.434C760.915 639.03 766.496 618.203 757.092 601.915L666.281 444.626Z" fill="#F6F6F6"/>
</svg>
