<svg width="104" height="104" viewBox="0 0 104 104" fill="none" xmlns="http://www.w3.org/2000/svg">
<path d="M51.8984 2.50098C52.0264 2.50098 52.1304 2.53887 52.1982 2.58496C52.2504 2.62038 52.3203 2.68452 52.373 2.84473L63.5283 36.7627C64.0741 38.4216 65.3753 39.7228 67.0342 40.2686L100.952 51.4238C101.112 51.4765 101.176 51.5465 101.212 51.5986C101.258 51.6665 101.296 51.7704 101.296 51.8984C101.296 52.0264 101.258 52.1304 101.212 52.1982C101.176 52.2504 101.112 52.3203 100.952 52.373L67.0342 63.5283C65.3753 64.0741 64.0741 65.3753 63.5283 67.0342L52.373 100.952C52.3203 101.112 52.2504 101.176 52.1982 101.212C52.1304 101.258 52.0264 101.296 51.8984 101.296C51.7704 101.296 51.6665 101.258 51.5986 101.212C51.5465 101.176 51.4765 101.112 51.4238 100.952L40.2686 67.0342C39.7228 65.3753 38.4216 64.0741 36.7627 63.5283L2.84473 52.373C2.68451 52.3203 2.62038 52.2504 2.58496 52.1982C2.53887 52.1304 2.50098 52.0264 2.50098 51.8984C2.50098 51.7704 2.53887 51.6665 2.58496 51.5986C2.62038 51.5465 2.68452 51.4765 2.84473 51.4238L36.7627 40.2686C38.4216 39.7228 39.7228 38.4216 40.2686 36.7627L51.4238 2.84473C51.4765 2.68451 51.5465 2.62038 51.5986 2.58496C51.6665 2.53887 51.7704 2.50098 51.8984 2.50098Z" stroke="black" stroke-width="5" stroke-linejoin="round"/>
</svg>
