<svg width="109" height="109" viewBox="0 0 109 109" fill="none" xmlns="http://www.w3.org/2000/svg">
<path d="M52.1978 1.37447C52.8008 -0.459077 55.3945 -0.459072 55.9975 1.37448L68.2601 38.6602C68.4585 39.2635 68.9318 39.7368 69.5352 39.9352L106.821 52.1978C108.654 52.8008 108.654 55.3945 106.821 55.9975L69.5352 68.2601C68.9318 68.4585 68.4585 68.9318 68.2601 69.5352L55.9975 106.821C55.3945 108.654 52.8008 108.654 52.1978 106.821L39.9352 69.5352C39.7368 68.9318 39.2635 68.4585 38.6602 68.2601L1.37447 55.9975C-0.459077 55.3945 -0.459072 52.8008 1.37448 52.1978L38.6602 39.9352C39.2635 39.7368 39.7368 39.2635 39.9352 38.6602L52.1978 1.37447Z" fill="#050505"/>
</svg>
