<svg width="110" height="64" viewBox="0 0 110 64" fill="none" xmlns="http://www.w3.org/2000/svg">
<rect width="110" height="64" rx="12" fill="#FBF8F2"/>
<rect x="0.5" y="0.5" width="109" height="63" rx="11.5" stroke="#1B1814" stroke-opacity="0.1"/>
<path d="M22.361 39V27.363H18.653V25.914H28.04V27.363H24.314V39H22.361ZM33.6563 39.198C32.9543 39.198 32.3243 39.069 31.7663 38.811C31.2143 38.553 30.7463 38.196 30.3623 37.74C29.9783 37.284 29.6873 36.759 29.4893 36.165C29.2913 35.565 29.1923 34.926 29.1923 34.248C29.1923 33.27 29.3783 32.427 29.7503 31.719C30.1283 31.005 30.6533 30.456 31.3253 30.072C32.0033 29.688 32.7893 29.496 33.6833 29.496C34.3133 29.496 34.8743 29.631 35.3663 29.901C35.8643 30.171 36.2663 30.543 36.5723 31.017C36.8783 31.491 37.0643 32.034 37.1303 32.646C37.2023 33.252 37.1303 33.894 36.9143 34.572H31.7483C31.8743 34.212 32.0543 33.909 32.2883 33.663C32.5283 33.417 32.8463 33.294 33.2423 33.294H35.3393C35.3933 32.856 35.3453 32.46 35.1953 32.106C35.0513 31.746 34.8323 31.458 34.5383 31.242C34.2443 31.026 33.9053 30.918 33.5213 30.918C33.0653 30.918 32.6513 31.044 32.2793 31.296C31.9133 31.542 31.6223 31.914 31.4063 32.412C31.1963 32.904 31.0913 33.513 31.0913 34.239C31.0913 34.941 31.2083 35.556 31.4423 36.084C31.6823 36.612 32.0123 37.023 32.4323 37.317C32.8523 37.605 33.3293 37.749 33.8633 37.749C34.2773 37.749 34.6733 37.704 35.0513 37.614C35.4353 37.518 35.8853 37.344 36.4013 37.092L36.8963 38.415C36.3023 38.709 35.7293 38.913 35.1773 39.027C34.6313 39.141 34.1243 39.198 33.6563 39.198ZM41.8968 39.198C41.2848 39.198 40.7568 39.081 40.3128 38.847C39.8688 38.613 39.5268 38.301 39.2868 37.911C39.0528 37.515 38.9358 37.077 38.9358 36.597C38.9358 36.021 39.0918 35.529 39.4038 35.121C39.7158 34.707 40.2318 34.368 40.9518 34.104C41.6778 33.84 42.6618 33.642 43.9038 33.51C43.8738 33.69 43.8168 33.885 43.7328 34.095C43.6488 34.305 43.5168 34.494 43.3368 34.662C43.1628 34.824 42.9258 34.929 42.6258 34.977C42.1638 35.049 41.8068 35.16 41.5548 35.31C41.3028 35.46 41.1288 35.634 41.0328 35.832C40.9368 36.03 40.8888 36.237 40.8888 36.453C40.8888 36.801 41.0148 37.104 41.2668 37.362C41.5188 37.62 41.8518 37.749 42.2658 37.749C42.6558 37.749 43.0488 37.644 43.4448 37.434C43.8468 37.218 44.2158 36.894 44.5518 36.462V33.267C44.5518 32.583 44.3778 32.028 44.0298 31.602C43.6878 31.17 43.1328 30.954 42.3648 30.954C42.0468 30.954 41.7258 30.987 41.4018 31.053C41.0778 31.119 40.6998 31.23 40.2678 31.386L39.7998 30.144C40.3758 29.892 40.9038 29.724 41.3838 29.64C41.8638 29.55 42.3078 29.505 42.7158 29.505C43.8978 29.505 44.8128 29.841 45.4608 30.513C46.1148 31.185 46.4418 32.136 46.4418 33.366V36.147C46.4418 36.759 46.4688 37.302 46.5228 37.776C46.5768 38.244 46.6458 38.652 46.7298 39H45.3348C45.1728 38.904 45.0408 38.775 44.9388 38.613C44.8428 38.445 44.7588 38.271 44.6868 38.091L44.6598 37.749L44.4528 38.073C43.9728 38.541 43.5348 38.847 43.1388 38.991C42.7488 39.129 42.3348 39.198 41.8968 39.198ZM60.7293 39V32.277C60.7293 31.893 60.6423 31.578 60.4683 31.332C60.3003 31.086 60.0333 30.963 59.6673 30.963C59.5353 30.963 59.4063 30.978 59.2803 31.008C59.1603 31.038 59.0193 31.068 58.8573 31.098C58.5273 31.158 58.2213 31.128 57.9393 31.008C57.6573 30.882 57.4023 30.681 57.1743 30.405C57.8223 30.057 58.3713 29.82 58.8213 29.694C59.2773 29.562 59.6823 29.496 60.0363 29.496C60.4923 29.496 60.9213 29.589 61.3233 29.775C61.7253 29.961 62.0493 30.264 62.2953 30.684C62.5413 31.104 62.6643 31.674 62.6643 32.394V39H60.7293ZM49.1823 39V31.962C49.1823 31.626 49.1613 31.269 49.1193 30.891C49.0833 30.513 49.0143 30.114 48.9123 29.694H50.4243C50.7123 30.018 50.9013 30.339 50.9913 30.657C51.0813 30.975 51.1263 31.314 51.1263 31.674V39H49.1823ZM54.9603 39V32.277C54.9603 31.893 54.8823 31.578 54.7263 31.332C54.5703 31.086 54.3243 30.963 53.9883 30.963C53.8503 30.963 53.7273 30.975 53.6193 30.999C53.5113 31.023 53.3823 31.05 53.2323 31.08C52.8963 31.14 52.5933 31.11 52.3233 30.99C52.0593 30.864 51.8133 30.663 51.5853 30.387C52.2273 30.039 52.7643 29.805 53.1963 29.685C53.6283 29.559 54.0183 29.496 54.3663 29.496C54.8223 29.496 55.2423 29.589 55.6263 29.775C56.0103 29.961 56.3193 30.264 56.5533 30.684C56.7873 31.104 56.9043 31.674 56.9043 32.394V39H54.9603ZM69.2195 39.198C68.4095 39.198 67.6655 39.012 66.9875 38.64C66.3095 38.262 65.7665 37.713 65.3585 36.993C64.9565 36.267 64.7555 35.382 64.7555 34.338C64.7555 33.51 64.8875 32.793 65.1515 32.187C65.4155 31.575 65.7635 31.071 66.1955 30.675C66.6335 30.279 67.1165 29.985 67.6445 29.793C68.1725 29.595 68.6975 29.496 69.2195 29.496C70.1495 29.496 70.9475 29.709 71.6135 30.135C72.2855 30.561 72.7985 31.14 73.1525 31.872C73.5125 32.604 73.6925 33.426 73.6925 34.338C73.6925 35.112 73.5695 35.802 73.3235 36.408C73.0835 37.008 72.7535 37.518 72.3335 37.938C71.9195 38.352 71.4425 38.667 70.9025 38.883C70.3685 39.093 69.8075 39.198 69.2195 39.198ZM69.2195 37.749C69.7715 37.749 70.2275 37.596 70.5875 37.29C70.9535 36.978 71.2235 36.564 71.3975 36.048C71.5775 35.526 71.6675 34.956 71.6675 34.338C71.6675 33.6 71.5595 32.979 71.3435 32.475C71.1275 31.971 70.8335 31.59 70.4615 31.332C70.0955 31.074 69.6815 30.945 69.2195 30.945C68.7635 30.945 68.3495 31.074 67.9775 31.332C67.6115 31.59 67.3175 31.971 67.0955 32.475C66.8795 32.979 66.7715 33.6 66.7715 34.338C66.7715 35.34 66.9875 36.159 67.4195 36.795C67.8515 37.431 68.4515 37.749 69.2195 37.749ZM75.9358 39V32.601C75.9358 32.109 75.9118 31.608 75.8638 31.098C75.8218 30.582 75.7498 30.114 75.6478 29.694H77.0698C77.2378 29.862 77.3668 30.066 77.4568 30.306C77.5468 30.546 77.6158 30.813 77.6638 31.107L77.6728 31.458L77.8258 31.107C78.0658 30.639 78.3958 30.264 78.8158 29.982C79.2418 29.694 79.6858 29.55 80.1478 29.55C80.2978 29.55 80.4508 29.565 80.6068 29.595C80.7628 29.619 80.9278 29.661 81.1018 29.721L80.8678 31.296C80.6698 31.242 80.4958 31.206 80.3458 31.188C80.2018 31.17 80.0698 31.161 79.9498 31.161C79.5658 31.161 79.2058 31.272 78.8698 31.494C78.5338 31.716 78.2608 32.052 78.0508 32.502C77.8408 32.952 77.7358 33.519 77.7358 34.203V39H75.9358ZM85.262 39.198C84.65 39.198 84.122 39.081 83.678 38.847C83.234 38.613 82.892 38.301 82.652 37.911C82.418 37.515 82.301 37.077 82.301 36.597C82.301 36.021 82.457 35.529 82.769 35.121C83.081 34.707 83.597 34.368 84.317 34.104C85.043 33.84 86.027 33.642 87.269 33.51C87.239 33.69 87.182 33.885 87.098 34.095C87.014 34.305 86.882 34.494 86.702 34.662C86.528 34.824 86.291 34.929 85.991 34.977C85.529 35.049 85.172 35.16 84.92 35.31C84.668 35.46 84.494 35.634 84.398 35.832C84.302 36.03 84.254 36.237 84.254 36.453C84.254 36.801 84.38 37.104 84.632 37.362C84.884 37.62 85.217 37.749 85.631 37.749C86.021 37.749 86.414 37.644 86.81 37.434C87.212 37.218 87.581 36.894 87.917 36.462V33.267C87.917 32.583 87.743 32.028 87.395 31.602C87.053 31.17 86.498 30.954 85.73 30.954C85.412 30.954 85.091 30.987 84.767 31.053C84.443 31.119 84.065 31.23 83.633 31.386L83.165 30.144C83.741 29.892 84.269 29.724 84.749 29.64C85.229 29.55 85.673 29.505 86.081 29.505C87.263 29.505 88.178 29.841 88.826 30.513C89.48 31.185 89.807 32.136 89.807 33.366V36.147C89.807 36.759 89.834 37.302 89.888 37.776C89.942 38.244 90.011 38.652 90.095 39H88.7C88.538 38.904 88.406 38.775 88.304 38.613C88.208 38.445 88.124 38.271 88.052 38.091L88.025 37.749L87.818 38.073C87.338 38.541 86.9 38.847 86.504 38.991C86.114 39.129 85.7 39.198 85.262 39.198Z" fill="black"/>
</svg>
