<svg width="110" height="64" viewBox="0 0 110 64" fill="none" xmlns="http://www.w3.org/2000/svg">
<rect width="110" height="64" rx="12" fill="#FBF8F2"/>
<rect x="0.5" y="0.5" width="109" height="63" rx="11.5" stroke="#1B1814" stroke-opacity="0.1"/>
<path d="M27.7846 34.0921V37.6436H15.5078V34.0921L22.2797 28.5168L15.5078 28.4441V24.8926L27.4809 24.9654V28.5168L20.8765 34.0921H27.7846Z" fill="url(#paint0_linear_216_1174)"/>
<path d="M63.9364 37.6429H59.4309L57.5574 34.2276C57.1684 34.2511 56.7693 34.2613 56.3631 34.2613H55.1767V37.6429H50.834V24.9639H56.3631C60.0069 24.9639 63.0787 25.7856 63.0787 29.6126C63.0787 31.321 62.4659 32.4307 61.4634 33.1351L63.9364 37.6429ZM58.8049 29.6126C58.8049 29.0522 58.4104 28.5153 57.3594 28.5153H55.1775V30.709H57.3594C58.4104 30.709 58.8049 30.1721 58.8049 29.6118V29.6126Z" fill="url(#paint1_linear_216_1174)"/>
<path d="M70.0587 28.1932C70.0775 28.1893 70.0955 28.1862 70.1135 28.1823C70.1315 28.1783 70.1487 28.1752 70.1652 28.1713C70.1816 28.1674 70.1981 28.1643 70.2137 28.1603C70.2294 28.1564 70.245 28.1533 70.2599 28.1494C70.2747 28.1455 70.2888 28.1416 70.3029 28.1376C70.317 28.1337 70.3303 28.1298 70.3436 28.1259C70.3569 28.122 70.3694 28.1173 70.382 28.1134C70.3945 28.1095 70.4062 28.1048 70.418 28.1001C70.4297 28.0954 70.4407 28.0907 70.4516 28.086C70.4626 28.0813 70.4727 28.0766 70.4837 28.0711C70.4939 28.0656 70.504 28.0609 70.5134 28.0555C70.5228 28.05 70.5322 28.0445 70.5416 28.0383C70.5502 28.0328 70.5596 28.0265 70.5674 28.0203C70.5761 28.014 70.5839 28.0077 70.5917 28.0007C70.5995 27.9936 70.6074 27.9874 70.6144 27.9796C70.6214 27.9725 70.6285 27.9647 70.6355 27.9576C70.6426 27.9498 70.6488 27.942 70.6551 27.9342C70.6614 27.9263 70.6676 27.9177 70.6739 27.9083C70.6801 27.8997 70.6856 27.8903 70.6911 27.8809C70.6966 27.8716 70.702 27.8622 70.7075 27.852C70.713 27.8418 70.7177 27.8316 70.7224 27.8207C70.7271 27.8097 70.7318 27.7988 70.7365 27.7878C70.7412 27.7761 70.7459 27.7643 70.7498 27.7526C70.7537 27.7409 70.7584 27.7276 70.7623 27.715C70.7662 27.7025 70.7701 27.6884 70.7748 27.6751C70.7788 27.661 70.7827 27.6469 70.7866 27.6329C70.7905 27.618 70.7944 27.6031 70.7975 27.5875C70.8014 27.5718 70.8046 27.5562 70.8085 27.5397C70.8124 27.5233 70.8155 27.5069 70.8194 27.4889C70.8234 27.4716 70.8265 27.4536 70.8304 27.4356C70.8343 27.4176 70.8374 27.3989 70.8414 27.3793C70.8453 27.3989 70.8484 27.4176 70.8523 27.4356C70.8562 27.4536 70.8594 27.4716 70.8633 27.4889C70.8672 27.5061 70.8703 27.5233 70.8742 27.5397C70.8781 27.5562 70.8813 27.5718 70.8852 27.5875C70.8891 27.6031 70.893 27.618 70.8961 27.6329C70.9001 27.6477 70.904 27.6618 70.9079 27.6751C70.9118 27.6884 70.9157 27.7025 70.9204 27.715C70.9251 27.7276 70.929 27.7409 70.9329 27.7526C70.9376 27.7651 70.9415 27.7769 70.9462 27.7878C70.9509 27.7996 70.9556 27.8105 70.9603 27.8207C70.965 27.8316 70.9705 27.8418 70.9752 27.852C70.9807 27.8622 70.9861 27.8716 70.9916 27.8809C70.9971 27.8903 71.0026 27.8997 71.0088 27.9083C71.0151 27.9169 71.0206 27.9256 71.0276 27.9342C71.0339 27.942 71.0409 27.9506 71.0472 27.9576C71.0542 27.9655 71.0613 27.9725 71.0683 27.9796C71.0754 27.9866 71.0832 27.9936 71.091 28.0007C71.0988 28.0077 71.1067 28.014 71.1153 28.0203C71.1239 28.0265 71.1325 28.0328 71.1411 28.0383C71.1497 28.0437 71.1591 28.05 71.1693 28.0555C71.1787 28.0609 71.1888 28.0664 71.199 28.0711C71.2092 28.0766 71.2201 28.0813 71.2311 28.086C71.2421 28.0907 71.253 28.0954 71.2647 28.1001C71.2765 28.1048 71.2882 28.1087 71.3007 28.1134C71.3133 28.1181 71.3258 28.122 71.3391 28.1259C71.3524 28.1298 71.3657 28.1337 71.3798 28.1376C71.3939 28.1416 71.408 28.1455 71.4228 28.1494C71.4377 28.1533 71.4534 28.1572 71.469 28.1603C71.4847 28.1643 71.5011 28.1674 71.5175 28.1713C71.534 28.1752 71.5512 28.1783 71.5692 28.1823C71.5872 28.1854 71.6052 28.1893 71.624 28.1932C71.6427 28.1963 71.6615 28.2003 71.6811 28.2042C71.6615 28.2081 71.642 28.2112 71.624 28.2151C71.6052 28.2183 71.5872 28.2222 71.5692 28.2261C71.5512 28.23 71.534 28.2331 71.5175 28.237C71.5011 28.241 71.4847 28.2441 71.469 28.248C71.4534 28.2519 71.4377 28.255 71.4228 28.2589C71.408 28.2629 71.3939 28.2668 71.3798 28.2707C71.3657 28.2746 71.3524 28.2785 71.3391 28.2824C71.3258 28.2863 71.3133 28.291 71.3007 28.2949C71.2882 28.2989 71.2765 28.3036 71.2647 28.3083C71.253 28.3129 71.2421 28.3176 71.2311 28.3223C71.2201 28.327 71.21 28.3317 71.199 28.3372C71.1888 28.3427 71.1787 28.3474 71.1693 28.3529C71.1599 28.3583 71.1505 28.3638 71.1411 28.3701C71.1325 28.3756 71.1231 28.3818 71.1153 28.3881C71.1067 28.3943 71.0988 28.4006 71.091 28.4076C71.0832 28.4147 71.0754 28.4209 71.0683 28.4288C71.0613 28.4358 71.0542 28.4436 71.0472 28.4507C71.0401 28.4585 71.0339 28.4663 71.0276 28.4742C71.0214 28.482 71.0151 28.4906 71.0088 28.5C71.0026 28.5086 70.9971 28.518 70.9916 28.5274C70.9861 28.5368 70.9807 28.5462 70.9752 28.5563C70.9697 28.5665 70.965 28.5767 70.9603 28.5876C70.9556 28.5986 70.9509 28.6096 70.9462 28.6205C70.9415 28.6323 70.9368 28.644 70.9329 28.6557C70.9282 28.6683 70.9243 28.6808 70.9204 28.6933C70.9165 28.7058 70.9126 28.7199 70.9079 28.7332C70.9032 28.7465 70.9001 28.7614 70.8961 28.7755C70.8922 28.7903 70.8883 28.8052 70.8852 28.8209C70.8813 28.8365 70.8781 28.8522 70.8742 28.8686C70.8703 28.885 70.8672 28.9015 70.8633 28.9195C70.8594 28.9367 70.8562 28.9547 70.8523 28.9727C70.8484 28.9907 70.8453 29.0095 70.8414 29.029C70.8374 29.0095 70.8343 28.9907 70.8304 28.9727C70.8265 28.9547 70.8234 28.9367 70.8194 28.9195C70.8155 28.9023 70.8124 28.885 70.8085 28.8686C70.8046 28.8522 70.8014 28.8365 70.7975 28.8209C70.7936 28.8052 70.7897 28.7903 70.7866 28.7755C70.7827 28.7606 70.7788 28.7465 70.7748 28.7332C70.7709 28.7191 70.767 28.7058 70.7623 28.6933C70.7576 28.6808 70.7537 28.6675 70.7498 28.6557C70.7451 28.6432 70.7412 28.6315 70.7365 28.6205C70.7318 28.6088 70.7271 28.5978 70.7224 28.5876C70.7177 28.5767 70.7122 28.5665 70.7075 28.5563C70.702 28.5462 70.6966 28.5368 70.6911 28.5274C70.6856 28.518 70.6801 28.5086 70.6739 28.5C70.6676 28.4914 70.6621 28.4828 70.6551 28.4742C70.6488 28.4663 70.6418 28.4577 70.6355 28.4507C70.6285 28.4429 70.6214 28.4358 70.6144 28.4288C70.6074 28.4217 70.5995 28.4147 70.5917 28.4076C70.5839 28.4006 70.5761 28.3943 70.5674 28.3881C70.5588 28.3818 70.5502 28.3756 70.5416 28.3701C70.533 28.3646 70.5236 28.3583 70.5134 28.3529C70.5033 28.3474 70.4939 28.3419 70.4837 28.3372C70.4735 28.3317 70.4626 28.327 70.4516 28.3223C70.4407 28.3176 70.4297 28.3129 70.418 28.3083C70.4062 28.3036 70.3945 28.2996 70.382 28.2949C70.3694 28.291 70.3569 28.2863 70.3436 28.2824C70.3303 28.2785 70.317 28.2746 70.3029 28.2707C70.2888 28.2668 70.2747 28.2629 70.2599 28.2589C70.245 28.255 70.2294 28.2511 70.2137 28.248C70.1981 28.2441 70.1816 28.241 70.1652 28.237C70.1487 28.2331 70.1315 28.23 70.1135 28.2261C70.0955 28.2222 70.0775 28.219 70.0587 28.2151C70.04 28.2112 70.0212 28.2081 70.0016 28.2042C70.0212 28.2003 70.0407 28.1971 70.0587 28.1932ZM75.861 32.3872C75.8422 32.3911 75.8242 32.3943 75.8062 32.3982C75.7882 32.4021 75.771 32.4052 75.7546 32.4091C75.7381 32.413 75.7217 32.4162 75.706 32.4201C75.6904 32.424 75.6747 32.4271 75.6599 32.431C75.645 32.4349 75.6309 32.4389 75.6168 32.4428C75.6028 32.4467 75.5894 32.4506 75.5761 32.4545C75.5628 32.4584 75.5503 32.4631 75.5378 32.467C75.5253 32.4709 75.5135 32.4756 75.5018 32.4803C75.49 32.485 75.4791 32.4897 75.4681 32.4944C75.4572 32.4991 75.447 32.5038 75.4361 32.5093C75.4259 32.514 75.4157 32.5195 75.4063 32.5249C75.3969 32.5304 75.3875 32.5359 75.3781 32.5422C75.3695 32.5476 75.3609 32.5539 75.3523 32.5602C75.3437 32.5664 75.3359 32.5727 75.3281 32.5797C75.3202 32.5868 75.3124 32.593 75.3054 32.6009C75.2983 32.6079 75.2913 32.6157 75.2842 32.6228C75.2772 32.6306 75.2709 32.6384 75.2647 32.6463C75.2584 32.6541 75.2521 32.6627 75.2459 32.6721C75.2396 32.6807 75.2341 32.6901 75.2287 32.6995C75.2232 32.7089 75.2177 32.7183 75.2122 32.7284C75.2067 32.7386 75.202 32.7488 75.1974 32.7597C75.1927 32.7707 75.188 32.7816 75.1833 32.7926C75.1786 32.8043 75.1739 32.8161 75.17 32.8278C75.1653 32.8403 75.1614 32.8529 75.1574 32.8654C75.1535 32.8779 75.1496 32.892 75.1449 32.9053C75.141 32.9194 75.1371 32.9335 75.1332 32.9476C75.1293 32.9624 75.1254 32.9773 75.1222 32.9929C75.1183 33.0086 75.1152 33.0243 75.1113 33.0407C75.1074 33.0571 75.1042 33.0736 75.1003 33.0916C75.0964 33.1088 75.0933 33.1268 75.0894 33.1448C75.0854 33.1628 75.0823 33.1816 75.0784 33.2011C75.0745 33.1816 75.0714 33.1628 75.0674 33.1448C75.0635 33.1268 75.0604 33.1088 75.0565 33.0916C75.0526 33.0743 75.0494 33.0571 75.0455 33.0407C75.0416 33.0243 75.0385 33.0086 75.0346 32.9929C75.0307 32.9773 75.0267 32.9624 75.0236 32.9476C75.0197 32.9327 75.0158 32.9186 75.0119 32.9053C75.008 32.8912 75.0041 32.8779 74.9994 32.8654C74.9947 32.8529 74.9907 32.8396 74.9868 32.8278C74.9829 32.8161 74.9782 32.8036 74.9735 32.7926C74.9688 32.7809 74.9641 32.7699 74.9594 32.7597C74.9547 32.7488 74.9493 32.7386 74.9446 32.7284C74.9391 32.7183 74.9336 32.7089 74.9281 32.6995C74.9227 32.6901 74.9172 32.6807 74.9109 32.6721C74.9047 32.6635 74.8992 32.6549 74.8921 32.6463C74.8859 32.6384 74.8788 32.6298 74.8726 32.6228C74.8655 32.6149 74.8585 32.6079 74.8514 32.6009C74.8444 32.5938 74.8366 32.5868 74.8287 32.5797C74.8209 32.5727 74.8131 32.5664 74.8045 32.5602C74.7959 32.5539 74.7873 32.5476 74.7787 32.5422C74.77 32.5367 74.7607 32.5304 74.7505 32.5249C74.7411 32.5195 74.7309 32.514 74.7207 32.5093C74.7106 32.5038 74.6996 32.4991 74.6887 32.4944C74.6777 32.4897 74.6667 32.485 74.655 32.4803C74.6433 32.4756 74.6315 32.4717 74.619 32.467C74.6065 32.4631 74.594 32.4584 74.5807 32.4545C74.5674 32.4506 74.5541 32.4467 74.54 32.4428C74.5259 32.4389 74.5118 32.4349 74.4969 32.431C74.4821 32.4271 74.4664 32.4232 74.4507 32.4201C74.4351 32.4162 74.4187 32.413 74.4022 32.4091C74.3858 32.4052 74.3686 32.4021 74.3506 32.3982C74.3326 32.3943 74.3146 32.3911 74.2958 32.3872C74.277 32.3841 74.2582 32.3802 74.2387 32.3763C74.2582 32.3723 74.2778 32.3692 74.2958 32.3653C74.3146 32.3622 74.3326 32.3583 74.3506 32.3543C74.3686 32.3504 74.3858 32.3473 74.4022 32.3434C74.4187 32.3395 74.4351 32.3363 74.4507 32.3324C74.4664 32.3285 74.4821 32.3254 74.4969 32.3215C74.5118 32.3176 74.5259 32.3136 74.54 32.3097C74.5541 32.3058 74.5674 32.3019 74.5807 32.298C74.594 32.2941 74.6065 32.2894 74.619 32.2855C74.6315 32.2816 74.6433 32.2769 74.655 32.2722C74.6667 32.2675 74.6777 32.2628 74.6887 32.2581C74.6996 32.2534 74.7098 32.2487 74.7207 32.2432C74.7309 32.2377 74.7411 32.233 74.7505 32.2276C74.7599 32.2221 74.7693 32.2166 74.7787 32.2103C74.7873 32.2049 74.7959 32.1986 74.8045 32.1923C74.8131 32.1861 74.8209 32.1798 74.8287 32.1728C74.8366 32.1657 74.8444 32.1595 74.8514 32.1524C74.8585 32.1454 74.8655 32.1376 74.8726 32.1305C74.8796 32.1227 74.8859 32.1149 74.8921 32.107C74.8984 32.0992 74.9047 32.0906 74.9109 32.0812C74.9172 32.0726 74.9227 32.0632 74.9281 32.0538C74.9336 32.0444 74.9391 32.035 74.9446 32.0249C74.95 32.0147 74.9547 32.0045 74.9594 31.9936C74.9641 31.9826 74.9688 31.9716 74.9735 31.9607C74.9782 31.9497 74.9829 31.9372 74.9868 31.9255C74.9915 31.913 74.9954 31.9004 74.9994 31.8879C75.0033 31.8754 75.0072 31.8613 75.0119 31.848C75.0166 31.8347 75.0197 31.8198 75.0236 31.8057C75.0275 31.7909 75.0314 31.776 75.0346 31.7603C75.0385 31.7447 75.0416 31.729 75.0455 31.7126C75.0494 31.6962 75.0526 31.6797 75.0565 31.6617C75.0604 31.6445 75.0635 31.6265 75.0674 31.6085C75.0714 31.5905 75.0745 31.5717 75.0784 31.5522C75.0823 31.5717 75.0854 31.5905 75.0894 31.6085C75.0933 31.6265 75.0964 31.6445 75.1003 31.6617C75.1042 31.6789 75.1074 31.6962 75.1113 31.7126C75.1152 31.729 75.1183 31.7447 75.1222 31.7603C75.1261 31.776 75.1301 31.7909 75.1332 31.8057C75.1371 31.8206 75.141 31.8347 75.1449 31.848C75.1488 31.8621 75.1528 31.8754 75.1574 31.8879C75.1621 31.9004 75.166 31.9137 75.17 31.9255C75.1747 31.938 75.1786 31.9497 75.1833 31.9607C75.188 31.9716 75.1927 31.9834 75.1974 31.9936C75.202 32.0045 75.2075 32.0147 75.2122 32.0249C75.2177 32.035 75.2232 32.0444 75.2287 32.0538C75.2341 32.0632 75.2396 32.0726 75.2459 32.0812C75.2521 32.0898 75.2576 32.0984 75.2647 32.107C75.2717 32.1156 75.278 32.1235 75.2842 32.1305C75.2913 32.1383 75.2983 32.1454 75.3054 32.1524C75.3124 32.1595 75.3202 32.1665 75.3281 32.1728C75.3359 32.1798 75.3437 32.1861 75.3523 32.1923C75.3609 32.1986 75.3695 32.2049 75.3781 32.2103C75.3867 32.2158 75.3961 32.2221 75.4063 32.2276C75.4157 32.233 75.4259 32.2385 75.4361 32.2432C75.4462 32.2487 75.4572 32.2534 75.4681 32.2581C75.4791 32.2628 75.49 32.2675 75.5018 32.2722C75.5135 32.2769 75.5253 32.2808 75.5378 32.2855C75.5503 32.2894 75.5628 32.2941 75.5761 32.298C75.5894 32.3019 75.6028 32.3058 75.6168 32.3097C75.6309 32.3136 75.645 32.3176 75.6599 32.3215C75.6747 32.3254 75.6904 32.3293 75.706 32.3324C75.7217 32.3363 75.7381 32.3395 75.7546 32.3434C75.771 32.3473 75.7882 32.3504 75.8062 32.3543C75.8242 32.3583 75.8422 32.3614 75.861 32.3653C75.8798 32.3684 75.8986 32.3723 75.9181 32.3763C75.8986 32.3802 75.879 32.3833 75.861 32.3872ZM75.7679 30.6232C75.6967 30.6373 75.627 30.6522 75.5597 30.6663C75.4924 30.6803 75.4267 30.6952 75.3633 30.7101C75.2999 30.7249 75.238 30.7398 75.1778 30.7547C75.1175 30.7696 75.0596 30.7852 75.0025 30.8009C74.9461 30.8165 74.8906 30.833 74.8374 30.8494C74.7841 30.8658 74.7325 30.883 74.6824 30.9003C74.6323 30.9175 74.5838 30.9355 74.5368 30.9535C74.4899 30.9715 74.4445 30.9903 74.3999 31.0098C74.3561 31.0294 74.313 31.0489 74.2715 31.0701C74.2301 31.0904 74.1901 31.1123 74.1518 31.1343C74.1134 31.1562 74.0759 31.1789 74.0399 31.2023C74.0039 31.2258 73.9687 31.2501 73.935 31.2751C73.9014 31.3002 73.8685 31.326 73.8372 31.3534C73.8059 31.38 73.7754 31.4082 73.7456 31.4371C73.7159 31.4661 73.6877 31.4958 73.6603 31.5271C73.6329 31.5584 73.6063 31.5897 73.5805 31.6234C73.5547 31.6563 73.5296 31.6907 73.5061 31.7259C73.4819 31.7611 73.4592 31.7979 73.4365 31.8363C73.4138 31.8746 73.3927 31.9129 73.3715 31.9536C73.3504 31.9943 73.33 32.0358 73.3105 32.0789C73.2909 32.1219 73.2714 32.1665 73.2526 32.2127C73.2338 32.2589 73.2158 32.3066 73.1978 32.3551C73.1798 32.4044 73.1626 32.4545 73.1461 32.5069C73.1297 32.5594 73.1133 32.6134 73.0968 32.6682C73.0804 32.7237 73.0647 32.7809 73.0499 32.8396C73.0342 32.8983 73.0194 32.9593 73.0045 33.0211C72.9896 33.0837 72.9747 33.1479 72.9599 33.2136C72.945 33.2794 72.9301 33.3475 72.9161 33.4179C72.902 33.4883 72.8871 33.5596 72.8722 33.6331C72.8574 33.7067 72.8433 33.7826 72.8284 33.8609C72.8135 33.7826 72.7994 33.7067 72.7846 33.6331C72.7697 33.5596 72.7556 33.4876 72.7408 33.4179C72.7259 33.3483 72.7118 33.2802 72.6969 33.2136C72.6821 33.1479 72.6672 33.083 72.6523 33.0211C72.6374 32.9585 72.6218 32.8983 72.6069 32.8396C72.592 32.7809 72.5756 32.7237 72.56 32.6682C72.5435 32.6126 72.5279 32.5586 72.5107 32.5069C72.4934 32.4553 72.477 32.4044 72.459 32.3551C72.441 32.3058 72.423 32.2581 72.4042 32.2127C72.3854 32.1665 72.3667 32.1219 72.3463 32.0789C72.3267 32.0358 72.3064 31.9936 72.2853 31.9536C72.2641 31.9129 72.2422 31.8738 72.2203 31.8363C72.1984 31.7987 72.1749 31.7619 72.1507 31.7259C72.1264 31.6907 72.1021 31.6563 72.0763 31.6234C72.0505 31.5905 72.0239 31.5584 71.9965 31.5271C71.9691 31.4966 71.9401 31.4661 71.9112 31.4371C71.8814 31.4082 71.8509 31.38 71.8196 31.3534C71.7883 31.3268 71.7554 31.3002 71.7218 31.2751C71.6881 31.2501 71.6529 31.2258 71.6169 31.2023C71.5809 31.1789 71.5434 31.1562 71.505 31.1343C71.4667 31.1123 71.4267 31.0912 71.3853 31.0701C71.3438 31.0497 71.3015 31.0294 71.2569 31.0098C71.2131 30.9903 71.1669 30.9715 71.12 30.9535C71.073 30.9355 71.0245 30.9175 70.9744 30.9003C70.9243 30.883 70.8727 30.8658 70.8194 30.8494C70.7662 30.833 70.7114 30.8165 70.6543 30.8009C70.598 30.7852 70.5393 30.7696 70.479 30.7547C70.4187 30.7398 70.3569 30.7249 70.2935 30.7101C70.2301 30.6952 70.1644 30.6811 70.0971 30.6663C70.0298 30.6522 69.9601 30.6373 69.8889 30.6232C69.8177 30.6091 69.7441 30.595 69.669 30.5802C69.5939 30.5661 69.5164 30.552 69.4366 30.5371C69.5164 30.523 69.5931 30.5082 69.669 30.4941C69.7441 30.48 69.8177 30.4659 69.8889 30.451C69.9601 30.4369 70.0298 30.4221 70.0971 30.408C70.1644 30.3939 70.2301 30.379 70.2935 30.3642C70.3569 30.3493 70.4187 30.3344 70.479 30.3196C70.5393 30.3047 70.5972 30.289 70.6543 30.2734C70.7114 30.2577 70.7662 30.2413 70.8194 30.2249C70.8727 30.2084 70.9243 30.1912 70.9744 30.174C71.0245 30.1568 71.073 30.1388 71.12 30.1208C71.1669 30.1028 71.2123 30.084 71.2569 30.0644C71.3007 30.0449 71.3438 30.0253 71.3853 30.0042C71.4267 29.9838 71.4667 29.9619 71.505 29.94C71.5434 29.9181 71.5809 29.8954 71.6169 29.8719C71.6529 29.8484 71.6881 29.8242 71.7218 29.7991C71.7554 29.7741 71.7883 29.7483 71.8196 29.7209C71.8509 29.6943 71.8814 29.6661 71.9112 29.6371C71.9409 29.6082 71.9691 29.5784 71.9965 29.5471C72.0239 29.5166 72.0505 29.4845 72.0763 29.4509C72.1021 29.4172 72.1272 29.3836 72.1507 29.3483C72.1749 29.3131 72.1976 29.2763 72.2203 29.238C72.243 29.1996 72.2641 29.1613 72.2853 29.1206C72.3064 29.0799 72.3267 29.0384 72.3463 28.9954C72.3659 28.9523 72.3854 28.9077 72.4042 28.8616C72.423 28.8154 72.441 28.7676 72.459 28.7191C72.477 28.6698 72.4942 28.6197 72.5107 28.5673C72.5271 28.5149 72.5435 28.4609 72.56 28.4061C72.5764 28.3505 72.592 28.2934 72.6069 28.2347C72.6226 28.176 72.6374 28.1149 72.6523 28.0531C72.6672 27.9913 72.6821 27.9263 72.6969 27.8606C72.7118 27.7949 72.7267 27.7268 72.7408 27.6563C72.7556 27.5867 72.7697 27.5147 72.7846 27.4403C72.7994 27.366 72.8135 27.2909 72.8284 27.2126C72.8433 27.2909 72.8574 27.3668 72.8722 27.4403C72.8871 27.5139 72.9012 27.5859 72.9161 27.6563C72.9309 27.7268 72.945 27.7941 72.9599 27.8606C72.9747 27.9263 72.9896 27.9913 73.0045 28.0531C73.0194 28.1157 73.035 28.176 73.0499 28.2347C73.0655 28.2934 73.0812 28.3505 73.0968 28.4061C73.1133 28.4616 73.1289 28.5156 73.1461 28.5673C73.1626 28.6197 73.1798 28.6698 73.1978 28.7191C73.2158 28.7684 73.2338 28.8154 73.2526 28.8616C73.2714 28.9077 73.2901 28.9523 73.3105 28.9954C73.33 29.0384 73.3504 29.0807 73.3715 29.1206C73.3927 29.1613 73.4146 29.2004 73.4365 29.238C73.4584 29.2756 73.4819 29.3123 73.5061 29.3483C73.5304 29.3843 73.5547 29.418 73.5805 29.4509C73.6063 29.4837 73.6329 29.5158 73.6603 29.5471C73.6877 29.5784 73.7167 29.6082 73.7456 29.6371C73.7754 29.6661 73.8059 29.6943 73.8372 29.7209C73.8685 29.7475 73.9014 29.7741 73.935 29.7991C73.9687 29.8242 74.0039 29.8484 74.0399 29.8719C74.0759 29.8954 74.1134 29.9181 74.1518 29.94C74.1901 29.9619 74.2301 29.983 74.2715 30.0042C74.313 30.0253 74.3553 30.0449 74.3999 30.0644C74.4437 30.084 74.4899 30.1028 74.5368 30.1208C74.5838 30.1388 74.6323 30.1568 74.6824 30.174C74.7325 30.1912 74.7841 30.2084 74.8374 30.2249C74.8906 30.2413 74.9454 30.2577 75.0025 30.2734C75.0596 30.289 75.1175 30.3047 75.1778 30.3196C75.238 30.3344 75.2999 30.3493 75.3633 30.3642C75.4267 30.379 75.4924 30.3931 75.5597 30.408C75.627 30.4221 75.6967 30.4369 75.7679 30.451C75.8391 30.4651 75.9127 30.4792 75.9878 30.4941C76.0629 30.5082 76.1404 30.5223 76.2202 30.5371C76.1404 30.5512 76.0637 30.5661 75.9878 30.5802C75.9127 30.5943 75.8391 30.6083 75.7679 30.6232ZM75.6638 24.792H69.5563L65.0195 37.471H71.3469L71.998 35.6515H73.3911L74.0422 37.471H80.1998L75.663 24.792H75.6638Z" fill="url(#paint2_linear_216_1174)"/>
<path d="M32.8995 28.8147L32.5278 28.8163L32.5317 28.4273H32.9285C32.9574 28.3443 33.0091 28.2739 33.0771 28.2254L33.0811 25.0065H32.9582C32.8799 25.1849 32.7171 25.2984 32.5379 25.2969C32.3587 25.2953 32.1959 25.1787 32.1185 24.9979L31.8344 24.9956C31.7561 25.1748 31.5933 25.289 31.4141 25.2875C31.2349 25.2859 31.0721 25.1693 30.9946 24.9885L30.7098 24.9862C30.6315 25.1654 30.4687 25.2796 30.2895 25.2781C30.1103 25.2765 29.9475 25.1599 29.87 24.9791L29.5859 24.9768C29.5077 25.156 29.3449 25.2702 29.1657 25.2687C28.9865 25.2671 28.8237 25.1505 28.7462 24.9697H28.6233L28.6194 28.1878C28.7016 28.2473 28.7595 28.3381 28.783 28.4422L29.161 28.4406V28.8296L28.79 28.8311C28.772 28.9571 28.7172 29.0456 28.6186 29.116L28.5771 37.6488H33.0834L33.0787 29.1575C32.9684 29.0776 32.9011 29.0197 32.9011 28.8194L32.8995 28.8147ZM29.9522 28.8147H29.3934V28.4249H29.9522V28.8147ZM30.7231 28.8147H30.1643V28.4249H30.7231V28.8147ZM31.4931 28.8147H30.9344V28.4249H31.4931V28.8147ZM32.2632 28.8147H31.7045V28.4249H32.2632V28.8147Z" fill="url(#paint3_linear_216_1174)"/>
<path d="M95.2755 24.9658V37.6441H90.853V32.9265H85.9069V37.6441H81.4844V24.9658H85.9069V29.3758H90.853V24.9658H95.2755Z" fill="url(#paint4_linear_216_1174)"/>
<path d="M49.6637 37.6425V37.6441H44.1651L44.1635 37.6425L42.8557 35.8237L42.3619 32.2018L46.6037 34.509L46.2577 33.8461L42.7047 31.0678C42.7047 31.0678 42.7751 28.9689 42.718 28.4539C42.6789 28.2606 42.5357 27.4709 42.1224 27.4443H42.1138C42.1052 27.4443 42.0974 27.4475 42.0896 27.449V27.4537C42.0716 27.449 42.0536 27.4451 42.0356 27.4451H42.0254C41.6137 27.4717 41.469 28.2606 41.4314 28.4547C41.3743 28.9696 41.4447 31.0686 41.4447 31.0686L37.8901 33.8469L37.6592 34.5097L41.8736 32.1995L41.4619 35.8245L40.1542 37.6433L40.1526 37.6449H34.4834V37.6433L39.0218 24.9658H45.1284L49.6652 37.6433L49.6637 37.6425Z" fill="url(#paint5_linear_216_1174)"/>
<defs>
<linearGradient id="paint0_linear_216_1174" x1="26.3091" y1="23.941" x2="13.5377" y2="26.3068" gradientUnits="userSpaceOnUse">
<stop stop-color="#5054D9"/>
<stop offset="1" stop-color="#8C8FEC"/>
</linearGradient>
<linearGradient id="paint1_linear_216_1174" x1="62.3617" y1="24.0176" x2="48.7997" y2="26.7141" gradientUnits="userSpaceOnUse">
<stop stop-color="#5054D9"/>
<stop offset="1" stop-color="#8C8FEC"/>
</linearGradient>
<linearGradient id="paint2_linear_216_1174" x1="78.3754" y1="23.8458" x2="62.8646" y2="27.4187" gradientUnits="userSpaceOnUse">
<stop stop-color="#5054D9"/>
<stop offset="1" stop-color="#8C8FEC"/>
</linearGradient>
<linearGradient id="paint3_linear_216_1174" x1="32.5418" y1="24.0235" x2="27.7157" y2="24.3535" gradientUnits="userSpaceOnUse">
<stop stop-color="#5054D9"/>
<stop offset="1" stop-color="#8C8FEC"/>
</linearGradient>
<linearGradient id="paint4_linear_216_1174" x1="93.6181" y1="24.0197" x2="79.4016" y2="26.995" gradientUnits="userSpaceOnUse">
<stop stop-color="#5054D9"/>
<stop offset="1" stop-color="#8C8FEC"/>
</linearGradient>
<linearGradient id="paint5_linear_216_1174" x1="47.8406" y1="24.0196" x2="32.3284" y2="27.5932" gradientUnits="userSpaceOnUse">
<stop stop-color="#5054D9"/>
<stop offset="1" stop-color="#8C8FEC"/>
</linearGradient>
</defs>
</svg>
